<?xml version="1.0" encoding="UTF-8"?>
<svg width="512px" height="489px" viewBox="0 0 512 489" version="1.1" xmlns="http://www.w3.org/2000/svg" xmlns:xlink="http://www.w3.org/1999/xlink">
    <!-- Generator: Sketch 55.2 (78181) - https://sketchapp.com -->
    <title>boat-porthole</title>
    <desc>Created with Sketch.</desc>
    <g id="Page-1" stroke="none" stroke-width="1" fill="none" fill-rule="evenodd">
        <g id="CryptoShark" fill-rule="nonzero">
            <g id="boat-porthole">
                <circle id="Oval" fill="#8EAFE2" cx="267.256" cy="245" r="237.244"></circle>
                <path d="M412.689,432.44 C189.98,492.862 75.047,159.731 205.665,15.848 C104.502,42.972 30.013,135.279 30.013,245 C30.013,376.026 136.231,482.244 267.257,482.244 C322.063,482.244 372.521,463.65 412.689,432.44 Z" id="Path" fill="#6A96D7"></path>
                <circle id="Oval" fill="#6A96D7" cx="267.256" cy="37.502" r="9.923"></circle>
                <g id="Group" transform="translate(48.000000, 88.000000)" fill="#8EAFE2">
                    <circle id="Oval" cx="72.533" cy="10.277" r="9.923"></circle>
                    <circle id="Oval" transform="translate(11.706146, 156.988720) rotate(-9.207969) translate(-11.706146, -156.988720) " cx="11.706146" cy="156.98872" r="9.92185383"></circle>
                    <circle id="Oval" cx="72.533" cy="303.723" r="9.923"></circle>
                    <circle id="Oval" cx="219.256" cy="364.498" r="9.923"></circle>
                </g>
                <circle id="Oval" fill="#6A96D7" cx="413.979" cy="391.723" r="9.923"></circle>
                <circle id="Oval" fill="#6A96D7" transform="translate(474.935782, 245.024304) rotate(-67.485887) translate(-474.935782, -245.024304) " cx="474.935782" cy="245.024304" r="9.92530683"></circle>
                <circle id="Oval" fill="#6A96D7" cx="413.979" cy="98.277" r="9.923"></circle>
                <circle id="Oval" fill="#FFFFFF" cx="267.256" cy="245" r="177.752"></circle>
                <path d="M267.256,422.752 C267.41,422.752 267.562,422.747 267.716,422.746 C170.148,369.494 121.084,226.331 148.726,112.55 C112.382,145.096 89.504,192.373 89.504,245 C89.504,343.17 169.087,422.752 267.256,422.752 Z" id="Path" fill="#F6E3A3"></path>
                <path d="M419.666,153.491 C402.727,125.339 378.21,102.267 348.936,87.093 C332.802,95.716 321.822,112.718 321.822,132.29 C321.822,160.578 344.754,183.511 373.043,183.511 C393.766,183.511 411.602,171.196 419.666,153.491 Z" id="Path" fill="#EEA849"></path>
                <path d="M32.673,175.316 L27.351,175.316 C16.387,175.316 7.5,184.204 7.5,195.168 L7.5,294.833 C7.5,305.797 16.388,314.685 27.351,314.685 L32.673,314.685 C43.637,314.685 52.524,305.797 52.524,294.833 L52.524,195.168 C52.525,184.204 43.637,175.316 32.673,175.316 Z" id="Path" fill="#4E5660"></path>
                <polygon id="Path" fill="#383C43" points="7.5 221.772 52.525 221.772 52.525 268.228 7.5 268.228"></polygon>
                <path d="M358.322,302.318982 L257.166913,302.318982 L246.463031,202.422103 C245.979096,197.904619 240.498956,188.827912 242.215,185.117245 C245.36646,178.302725 257.927259,178.318982 265.299477,178.318982 C277.340254,178.318982 282.404119,186.680596 291.838431,194.38719 C296.332118,198.057943 318.493308,234.035207 358.322,302.318982 Z" id="Path" fill="#7ACEFA"></path>
                <path d="M267.256,422.752 C364.022,422.752 442.723,345.429 444.955,249.2 C435.401,246.269 424.887,247.38 416.076,252.572 C405.105,259.036 392.319,262.747 378.663,262.747 C365.007,262.747 352.221,259.037 341.25,252.572 C329.986,245.935 315.933,245.935 304.669,252.572 C293.698,259.036 280.913,262.747 267.256,262.747 C253.599,262.747 240.814,259.037 229.843,252.572 C218.579,245.935 204.526,245.935 193.263,252.572 C182.292,259.036 169.506,262.747 155.85,262.747 C142.194,262.747 129.408,259.037 118.437,252.572 C109.626,247.38 99.113,246.269 89.558,249.2 C91.789,345.429 170.491,422.752 267.256,422.752 L267.256,422.752 Z" id="Path" fill="#A3DEFE"></path>
                <path d="M267.256,422.752 C267.41,422.752 267.562,422.746 267.716,422.746 C211.135,391.865 170.863,330.753 152.405,262.657 C140.045,262.089 128.479,258.489 118.436,252.571 C109.625,247.379 99.112,246.268 89.557,249.199 C91.789,345.429 170.491,422.752 267.256,422.752 Z" id="Path" fill="#7ACEFA"></path>
                <path d="M156.083,321.965 C147.188,321.965 138.604,319.332 131.257,314.35 C127.829,312.025 126.935,307.362 129.26,303.933 C131.585,300.504 136.247,299.61 139.677,301.936 C144.529,305.226 150.201,306.965 156.083,306.965 C161.964,306.965 167.637,305.226 172.488,301.936 C175.918,299.608 180.581,300.505 182.905,303.933 C185.23,307.362 184.336,312.025 180.908,314.35 C173.561,319.332 164.977,321.965 156.083,321.965 Z" id="Path" fill="#A3DEFE"></path>
                <path d="M267.256,376.776 C258.361,376.776 249.777,374.143 242.431,369.161 C239.003,366.836 238.109,362.173 240.434,358.744 C242.758,355.316 247.422,354.421 250.851,356.747 C255.703,360.037 261.375,361.776 267.256,361.776 C273.138,361.776 278.811,360.037 283.662,356.747 C287.093,354.419 291.755,355.316 294.079,358.744 C296.404,362.173 295.51,366.836 292.082,369.161 C284.735,374.144 276.151,376.776 267.256,376.776 L267.256,376.776 Z" id="Path" fill="#7ACEFA"></path>
                <path d="M352.426,333.339 C343.531,333.339 334.947,330.706 327.601,325.724 C324.173,323.399 323.279,318.736 325.604,315.307 C327.929,311.879 332.592,310.985 336.021,313.31 C340.873,316.6 346.545,318.339 352.426,318.339 C358.308,318.339 363.981,316.6 368.832,313.31 C372.262,310.982 376.924,311.878 379.249,315.307 C381.574,318.736 380.68,323.399 377.252,325.724 C369.905,330.706 361.321,333.339 352.426,333.339 L352.426,333.339 Z" id="Path" fill="#7ACEFA"></path>
                <path d="M389.803956,136.19315 C388.339934,134.230694 386.24629,132.842377 383.523044,132.028141 C385.632052,130.963403 387.208679,129.564676 388.252898,127.83185 C389.297164,126.099029 389.819321,124.251443 389.819321,122.288988 C389.819321,120.180379 389.230652,118.160512 388.053305,116.229388 C386.875901,114.29821 385.248126,112.868152 383.169799,111.939099 C381.792916,111.323606 380.110513,110.9166 378.135894,110.708892 L378.135894,105 L373.12653,105 L373.12653,110.54558 L369.797179,110.54558 L369.797179,105 L364.787871,105 L364.787871,110.54558 L358,110.54558 L358,156.45442 L364.787871,156.45442 L364.787871,162 L369.797179,162 L369.797179,156.45442 L373.12653,156.45442 L373.12653,162 L378.135894,162 L378.135894,156.338273 C379.738755,156.219245 381.184914,156.010208 382.432681,155.68718 C384.408603,155.175713 386.051752,154.418936 387.362227,153.416812 C388.672655,152.414687 389.773228,150.989827 390.663946,149.142242 C391.554608,147.294608 392,145.295609 392,143.14526 C392,140.47298 391.267979,138.15561 389.803956,136.19315 L389.803956,136.19315 Z M363.958448,115.963162 L372.957561,115.963162 C376.192706,115.963162 378.475729,116.177184 379.806675,116.605175 C381.137622,117.033161 382.161369,117.826471 382.878016,118.985158 C383.594663,120.143841 383.953015,121.485215 383.953015,123.009221 C383.953015,124.616763 383.569089,125.952934 382.801242,127.017619 C382.033391,128.082357 380.891884,128.844385 379.376709,129.303706 C378.230043,129.658621 376.336049,129.836051 373.69468,129.836051 L363.958448,129.836051 L363.958448,115.963162 L363.958448,115.963162 Z M384.935871,147.012765 C384.342043,148.129654 383.584453,148.980433 382.663059,149.564977 C381.741607,150.149521 380.594994,150.567101 379.223109,150.817604 C378.445052,150.963757 377.093634,151.036833 375.168912,151.036833 L363.958448,151.036833 L363.958448,135.253692 L374.370388,135.253692 C377.236977,135.253692 379.433016,135.509454 380.958448,136.020927 C382.48388,136.532399 383.676592,137.419706 384.536581,138.682748 C385.396571,139.945843 385.826533,141.433306 385.826533,143.14526 C385.826533,144.606653 385.529643,145.895828 384.935871,147.012765 L384.935871,147.012765 Z" id="Shape" fill="#FEDA6F"></path>
                <path d="M48.974,316.782 C55.675,311.792 60.024,303.811 60.024,294.833 L60.024,195.167 C60.024,186.19 55.676,178.21 48.977,173.22 C63.487,129.166 91.697,89.692 128.912,61.572 C169.013,31.271 216.851,15.256 267.256,15.256 C308.485,15.256 348.919,26.301 384.189,47.196 C387.756,49.31 392.354,48.132 394.464,44.567 C396.575,41.002 395.399,36.403 391.835,34.292 C354.252,12.025 311.173,0.256 267.256,0.256 C213.562,0.256 162.596,17.32 119.869,49.605 C80.409,79.421 50.452,121.233 34.935,167.917 C34.189,167.856 33.436,167.816 32.674,167.816 L27.352,167.816 C12.269,167.815 -1.13686838e-13,180.085 -1.13686838e-13,195.167 L-1.13686838e-13,294.833 C-1.13686838e-13,309.915 12.269,322.185 27.352,322.185 L32.674,322.185 C33.433,322.185 34.184,322.146 34.928,322.085 C48.023,361.568 71.106,397.211 101.993,425.51 C103.432,426.828 105.248,427.48 107.057,427.48 C109.086,427.48 111.11,426.661 112.589,425.046 C115.387,421.992 115.18,417.248 112.125,414.449 C82.974,387.741 61.231,354.072 48.974,316.782 L48.974,316.782 Z M45.024,294.833 C45.024,301.644 39.484,307.185 32.673,307.185 L27.351,307.185 C20.54,307.185 14.999,301.644 14.999,294.833 L14.999,195.167 C14.999,188.356 20.54,182.815 27.351,182.815 L32.673,182.815 C39.484,182.815 45.024,188.356 45.024,195.167 L45.024,294.833 Z M421.699,55.13 C418.485,52.512 413.763,52.997 411.147,56.209 C408.532,59.421 409.014,64.146 412.226,66.761 C466.102,110.635 497,175.601 497,245 C497,306.367 473.103,364.06 429.71,407.454 C386.316,450.847 328.623,474.744 267.256,474.744 C221.351,474.744 177.044,461.248 139.124,435.716 C135.692,433.403 131.027,434.312 128.714,437.749 C126.401,441.185 127.311,445.846 130.747,448.158 C171.15,475.364 218.354,489.744 267.256,489.744 C332.63,489.744 394.09,464.286 440.317,418.06 C486.542,371.834 512,310.374 512,245 C512,171.069 479.087,101.864 421.699,55.13 Z M351.62,80.098 C326.303,67.093 297.621,59.748 267.256,59.748 C165.107,59.748 82.004,142.852 82.004,245 C82.004,246.389 82.026,247.773 82.057,249.155 L82.057,249.193 C84.295,349.412 166.509,430.252 267.256,430.252 C367.993,430.252 450.201,349.428 452.454,249.222 C452.454,249.195 452.455,249.167 452.455,249.14 C452.485,247.763 452.508,246.384 452.508,245 C452.508,210.513 443.025,178.205 426.545,150.525 C426.285,149.922 425.949,149.353 425.538,148.834 C408.061,120.175 383.018,96.619 353.212,80.939 C352.715,80.594 352.18,80.312 351.62,80.098 L351.62,80.098 Z M267.256,415.252 C176.824,415.252 102.645,344.375 97.322,255.257 C103.314,254.66 109.399,255.951 114.628,259.034 C127.078,266.37 141.332,270.247 155.85,270.247 C170.369,270.247 184.623,266.369 197.071,259.034 C206.004,253.77 217.103,253.77 226.036,259.034 C238.484,266.369 252.738,270.247 267.257,270.247 C281.776,270.247 296.029,266.369 308.477,259.034 C314.232,255.643 320.884,254.45 327.278,255.427 C327.447,255.462 327.617,255.488 327.788,255.512 C331.142,256.087 334.418,257.251 337.444,259.034 C349.892,266.369 364.146,270.247 378.665,270.247 C393.184,270.247 407.437,266.369 419.885,259.034 C425.114,255.952 431.198,254.659 437.192,255.257 C431.868,344.375 357.689,415.252 267.256,415.252 L267.256,415.252 Z M255.217654,183.511 C269.630512,183.511 309.079481,226.976335 315.969856,239.787523 L316.215,240.242685 C310.811698,241.099703 305.527929,242.956233 300.662525,245.857383 C296.760616,248.184825 287.932712,253.784684 279.183083,255.529243 C271.230143,257.114953 263.341872,254.923484 259.276252,255.529243 L255.217654,216.719057 C254.930977,214.329454 240.550511,187.320356 242.374934,185.117245 C249.350401,184.046415 253.631308,183.511 255.217654,183.511 Z M437.438,240.234 C428.704,239.616 419.896,241.615 412.269,246.109 C402.126,252.087 390.505,255.246 378.664,255.246 C366.822,255.246 355.201,252.087 345.059,246.109 C341.476,243.998 337.661,242.457 333.741,241.455 L329.15,233.018 C319.719,215.691 278.470486,173.259116 258.744486,173.259116 C252.140486,173.259116 236.734836,172.376 232.354836,177.319 C227.974836,182.263 244.04661,212.875467 244.84261,219.433467 L248.769974,255.246 C238.802974,254.44 242.258,251.181 233.651,246.108 C220.021,238.077 203.087,238.077 189.456,246.108 C179.313,252.086 167.692,255.246 155.851,255.246 C144.009,255.246 132.388,252.086 122.245,246.108 C114.618,241.614 105.809,239.614 97.076,240.232 C99.61,148.551 174.975,74.747 267.258,74.747 C290.947,74.747 313.519,79.616 334.033,88.397 C321.64,99.4 314.323,115.273 314.323,132.289 C314.323,164.668 340.665,191.01 373.044,191.01 C391.298,191.011 408.303,182.455 419.29,168.434 C430.261,190.13 436.726,214.475 437.438,240.234 Z M411.028,153.909 C403.303,167.451 388.798,176.01 373.042,176.01 C348.935,176.01 329.321,156.397 329.321,132.289 C329.321,117.448 336.811,103.789 349.084,95.742 C374.296,109.62 395.633,129.697 411.028,153.909 Z" id="Shape" fill="#000000"></path>
            </g>
        </g>
    </g>
</svg>